PathFileType	4	(X/Y/Z)	E:\Marcel_BSc\Marcel\30_01_2025\static_00.trc
DataRate	CameraRate	NumFrames	NumMarkers	Units	OrigDataRate	OrigDataStartFrame	OrigNumFrames
200.0	200.0	4	59	mm	200.0	60	158	
Frame#	Time	FHD			LBHD			RBHD			RBAR			LBAR			RASI			RSACR			LSACR			LASI			USACR			C7			CLAV			T10			RSHO			LSHO			LTHI1			LTHI3			LTHI2			LLFC			LMFC			LTIB1			LTIB2			LTIB3			LMMAL			LLMAL			LHEE			LMT1			LMT5			LMT3			RTHI1			RTHI2			RTHI3			RLFC			RMFC			RTIB1			RTIB3			RTIB2			RLMAL			RMMAL			RHEE			RMT5			RMT1			RMT3			LMEP			LLEP			LDUPA			LMUPA			LUUPA			LUL			LRAD			LRFIN			RUL			RRAD			RUFIN			RMEP			RLEP			RMUPA			RDUPA			RUUPA			
		X1	Y1	Z1	X2	Y2	Z2	X3	Y3	Z3	X4	Y4	Z4	X5	Y5	Z5	X6	Y6	Z6	X7	Y7	Z7	X8	Y8	Z8	X9	Y9	Z9	X10	Y10	Z10	X11	Y11	Z11	X12	Y12	Z12	X13	Y13	Z13	X14	Y14	Z14	X15	Y15	Z15	X16	Y16	Z16	X17	Y17	Z17	X18	Y18	Z18	X19	Y19	Z19	X20	Y20	Z20	X21	Y21	Z21	X22	Y22	Z22	X23	Y23	Z23	X24	Y24	Z24	X25	Y25	Z25	X26	Y26	Z26	X27	Y27	Z27	X28	Y28	Z28	X29	Y29	Z29	X30	Y30	Z30	X31	Y31	Z31	X32	Y32	Z32	X33	Y33	Z33	X34	Y34	Z34	X35	Y35	Z35	X36	Y36	Z36	X37	Y37	Z37	X38	Y38	Z38	X39	Y39	Z39	X40	Y40	Z40	X41	Y41	Z41	X42	Y42	Z42	X43	Y43	Z43	X44	Y44	Z44	X45	Y45	Z45	X46	Y46	Z46	X47	Y47	Z47	X48	Y48	Z48	X49	Y49	Z49	X50	Y50	Z50	X51	Y51	Z51	X52	Y52	Z52	X53	Y53	Z53	X54	Y54	Z54	X55	Y55	Z55	X56	Y56	Z56	X57	Y57	Z57	X58	Y58	Z58	X59	Y59	Z59	
60	0.29	103.18301	1817.8893	-579.85742	135.61665	1803.1538	-521.52344	131.62947	1801.637	-650.73804	1237.7603	37.499008	-1766.9814	1247.9995	32.430305	457.9603	100.36398	1048.3717	-724.65405	308.92236	1098.1006	-621.34137	304.72919	1095.2197	-557.46991	94.454674	1038.5709	-458.67587	300.50256	1111.9359	-589.32257	278.59787	1566.8197	-583.19342	116.14671	1531.4271	-584.4696	280.86487	1257.0991	-577.52637	239.67006	1605.012	-733.90552	223.48618	1595.2107	-416.8877	227.9436	706.99396	-410.2821	257.51923	651.28015	-428.91806	210.52214	643.77362	-408.17163	221.13197	524.74524	-415.37421	174.22752	506.31927	-517.25879	222.1129	276.40344	-399.94638	269.3898	274.93585	-381.14822	242.78224	214.25052	-391.95551	268.03842	92.412376	-468.15576	287.06293	83.727592	-380.64642	343.93951	39.030571	-422.42038	115.25125	41.444214	-434.43146	145.15422	26.125057	-352.0347	122.67405	36.076027	-388.93741	207.28049	674.64777	-792.97961	254.22588	671.01019	-773.72827	225.65627	613.10815	-781.677	202.69292	529.30927	-778.22571	179.04115	508.6683	-681.91107	259.70734	277.76099	-811.38916	291.50757	219.53018	-814.05212	240.60025	214.43318	-809.81799	292.78485	75.50425	-813.59406	245.1257	71.096527	-736.32086	339.70831	30.557718	-765.13806	173.10718	26.144474	-862.64764	109.4111	42.541008	-788.38617	134.08463	40.160915	-828.94458	160.56001	1469.6458	-114.26064	233.44281	1508.8577	-115.80096	259.50735	1523.171	-216.98344	226.89713	1560.9037	-219.34201	235.78395	1564.9198	-281.01355	170.16748	1563.0443	167.61836	140.95602	1627.9486	136.58148	167.11139	1657.0807	236.11375	216.20695	1591.5164	-1341.4635	195.47337	1658.5398	-1308.0046	226.38976	1681.234	-1394.5171	178.24901	1484.436	-1044.9955	247.4678	1539.6156	-1056.5947	246.455	1577.281	-909.99359	254.41711	1564.5435	-970.30988	281.271	1542.249	-898.54968
61	0.295	103.16935	1817.8795	-579.89636	135.59547	1803.1516	-521.55255	131.61621	1801.6202	-650.76459	1237.7589	37.499329	-1766.9757	1247.9464	32.324345	457.96375	100.42995	1048.3898	-724.72455	308.95245	1098.1271	-621.36176	304.78958	1095.2394	-557.46796	94.506805	1038.5669	-458.67838	300.56171	1111.9431	-589.33069	278.61716	1566.8214	-583.21387	116.1692	1531.4341	-584.48602	280.90985	1257.1063	-577.52606	239.67717	1605.0223	-733.92517	223.47632	1595.2343	-416.90649	227.96452	706.98346	-410.29437	257.55038	651.28009	-428.91339	210.5654	643.77081	-408.16779	221.1543	524.74579	-415.36856	174.2386	506.33508	-517.27155	222.16266	276.31393	-400.23868	269.39825	274.92917	-381.14615	242.78743	214.23387	-391.95581	268.02072	92.443901	-468.15485	287.06335	83.719536	-380.64117	344.05182	39.113689	-422.28448	115.25921	41.437706	-434.42804	145.15663	26.120831	-352.03479	122.68157	36.07193	-388.93954	207.2737	674.70892	-792.98926	254.23518	671.02026	-773.74683	225.79391	613.09076	-781.60773	202.69341	529.33765	-778.24292	179.05342	508.66049	-681.92218	259.71091	277.75247	-811.40967	291.3559	219.6179	-813.8999	240.59076	214.43179	-809.81012	292.78104	75.495758	-813.60034	245.12857	71.091042	-736.3194	339.86942	30.546602	-765.04315	173.12042	26.132832	-862.64166	109.40549	42.542301	-788.3894	134.07503	40.157791	-828.95374	160.58994	1469.6512	-114.27031	233.45616	1508.8719	-115.8123	259.51614	1523.1923	-216.99504	226.826	1560.9899	-218.98334	235.7872	1564.9259	-281.03702	170.19897	1563.0537	167.61882	140.93297	1627.9467	136.58707	167.0976	1657.1024	236.09175	216.21083	1591.5059	-1341.4608	195.45309	1658.524	-1308.0266	226.39424	1681.2405	-1394.5272	178.23418	1484.4277	-1045.0382	247.46667	1539.6295	-1056.6407	246.48466	1577.2832	-910.01984	254.42674	1564.5416	-970.32159	281.28033	1542.233	-898.56653
62	0.3	103.14694	1817.8754	-579.93597	135.58182	1803.1541	-521.58289	131.59654	1801.611	-650.79205	1237.7655	37.492908	-1766.9727	1248.0006	32.420418	457.97745	100.15121	1048.1932	-723.97485	308.99881	1098.1499	-621.37878	304.83221	1095.2517	-557.47986	94.552147	1038.5695	-458.69052	300.61261	1111.9537	-589.34546	278.63364	1566.8326	-583.2298	116.18382	1531.434	-584.50085	280.9353	1257.109	-577.54602	239.68314	1605.0309	-733.93481	223.48076	1595.2607	-416.92313	227.98672	706.97589	-410.28833	257.561	651.2666	-428.90842	210.5979	643.76648	-408.16284	221.17177	524.73749	-415.36353	174.24821	506.33408	-517.26581	222.1922	276.29907	-400.24252	269.41574	274.92062	-381.13971	242.79956	214.22009	-391.97156	268.00494	92.454376	-468.15341	287.06802	83.713539	-380.63855	343.9183	39.030537	-422.42914	115.25787	41.438965	-434.42813	145.15799	26.120325	-352.03964	122.67016	36.071663	-388.93457	207.34401	674.64551	-793.00244	254.26883	671.01764	-773.72632	225.71733	613.09833	-781.68671	202.74147	529.32416	-778.22614	179.06029	508.65228	-681.93237	259.71338	277.76041	-811.41443	291.50128	219.54173	-814.05511	240.59711	214.4303	-809.81958	292.79443	75.487656	-813.60559	245.13052	71.083122	-736.32178	339.68195	30.549662	-765.15839	173.10356	26.148024	-862.65472	109.4119	42.531071	-788.39551	134.08105	40.159969	-828.95044	160.59627	1469.6602	-114.28278	233.46716	1508.8938	-115.82567	259.51453	1523.2139	-217.01624	226.91153	1560.9454	-219.34737	235.78575	1564.978	-281.05042	170.20956	1563.0576	167.60822	140.91966	1627.9446	136.56866	167.10887	1657.1187	236.07578	216.21596	1591.4968	-1341.4843	195.43765	1658.5083	-1308.0468	226.38474	1681.2251	-1394.558	178.24332	1484.4034	-1045.0615	247.48219	1539.6232	-1056.6644	246.49464	1577.2825	-910.04907	254.41489	1564.5211	-970.35773	281.27585	1542.2308	-898.60248
63	0.305	103.11546	1817.8713	-579.96692	135.55238	1803.1561	-521.61536	131.57706	1801.5978	-650.8269	1237.7665	37.492317	-1766.9799	1247.9973	32.434448	457.98373	100.49167	1048.3707	-724.63708	309.06604	1098.1508	-621.37274	304.8884	1095.2648	-557.49768	94.599144	1038.5698	-458.68835	300.65579	1111.9695	-589.3476	278.64569	1566.8518	-583.23334	116.19689	1531.4332	-584.51398	280.98581	1257.1277	-577.54395	239.68588	1605.0404	-733.9541	223.47287	1595.1997	-416.97729	227.99925	706.9729	-410.29788	257.58798	651.25494	-428.91223	210.60553	643.76007	-408.16412	221.19199	524.73248	-415.36346	174.25934	506.32895	-517.26733	222.1368	276.40134	-399.93423	269.41745	274.91507	-381.1398	242.81291	214.25885	-391.92886	268.03961	92.421722	-468.15118	287.06577	83.71315	-380.63354	344.05179	39.097488	-422.28928	115.25551	41.438992	-434.42868	145.15417	26.115108	-352.03549	122.67579	36.072472	-388.93625	207.35696	674.6803	-793.01379	254.28372	670.9928	-773.73602	225.73106	613.11279	-781.69708	202.74838	529.32794	-778.25104	179.07265	508.65442	-681.94678	259.73083	277.75659	-811.40674	291.70709	219.38573	-814.03748	240.60495	214.42256	-809.82269	292.78265	75.498543	-813.60504	245.12915	71.080292	-736.32385	339.70175	30.529427	-765.16449	173.10143	26.143076	-862.65674	109.40801	42.535984	-788.38739	134.07545	40.155987	-828.9563	160.60683	1469.6837	-114.3019	233.46741	1508.907	-115.83408	259.52554	1523.2528	-217.02357	226.92059	1560.9675	-219.38986	235.76881	1564.9886	-281.05737	170.23247	1563.0569	167.59386	140.9184	1627.9465	136.55836	167.11913	1657.1205	236.0468	216.22536	1591.4855	-1341.498	195.42802	1658.4948	-1308.0725	226.35304	1681.2129	-1394.5668	178.24397	1484.4149	-1045.0592	247.49828	1539.637	-1056.6505	246.48514	1577.2919	-910.06049	254.39915	1564.5259	-970.37244	281.27112	1542.2346	-898.62994
